HIERARCHY
ROOT joint_0
{
	OFFSET 0.000000 0.000000 0.000000
	CHANNELS 6 Xposition Yposition Zposition Zrotation Yrotation Xrotation 
	JOINT joint_1
	{
		OFFSET 7.683380 1.521202 101.454956
		CHANNELS 3 Zrotation Yrotation Xrotation
		JOINT joint_2
		{
			OFFSET -4.816528 0.859650 92.807007
			CHANNELS 3 Zrotation Yrotation Xrotation
			JOINT joint_3
			{
				OFFSET -7.237778 1.114670 92.543091
				CHANNELS 3 Zrotation Yrotation Xrotation
				JOINT joint_4
				{
					OFFSET 0.479660 2.971886 127.844971
					CHANNELS 3 Zrotation Yrotation Xrotation
					JOINT joint_5
					{
						OFFSET 15.211349 9.937172 76.390015
						CHANNELS 3 Zrotation Yrotation Xrotation
						End Site
						{
							OFFSET 0.000000 0.000000 0.000000
						}
					}
				}
				JOINT joint_6
				{
					OFFSET 2.887054 -26.053230 72.331909
					CHANNELS 3 Zrotation Yrotation Xrotation
					JOINT joint_7
					{
						OFFSET 10.229767 -132.540291 -13.979004
						CHANNELS 3 Zrotation Yrotation Xrotation
						JOINT joint_8
						{
							OFFSET 17.695633 -10.988861 -262.204956
							CHANNELS 3 Zrotation Yrotation Xrotation
							JOINT joint_9
							{
								OFFSET 11.003433 -0.031860 -255.909973
								CHANNELS 3 Zrotation Yrotation Xrotation
								End Site
								{
									OFFSET 0.000000 0.000000 0.000000
								}
							}
						}
					}
				}
				JOINT joint_10
				{
					OFFSET -2.092239 29.348854 71.062988
					CHANNELS 3 Zrotation Yrotation Xrotation
					JOINT joint_11
					{
						OFFSET -11.853149 131.935837 -17.877075
						CHANNELS 3 Zrotation Yrotation Xrotation
						JOINT joint_12
						{
							OFFSET 14.084503 10.700203 -262.437012
							CHANNELS 3 Zrotation Yrotation Xrotation
							JOINT joint_13
							{
								OFFSET 48.202347 13.087273 -251.229919
								CHANNELS 3 Zrotation Yrotation Xrotation
								End Site
								{
									OFFSET 0.000000 0.000000 0.000000
								}
							}
						}
					}
				}
			}
		}
	}
	JOINT joint_14
	{
		OFFSET 4.150818 -83.296913 -102.580017
		CHANNELS 3 Zrotation Yrotation Xrotation
		JOINT joint_15
		{
			OFFSET -36.423187 -7.342392 -449.858948
			CHANNELS 3 Zrotation Yrotation Xrotation
			JOINT joint_16
			{
				OFFSET -41.100235 -7.280350 -426.202026
				CHANNELS 3 Zrotation Yrotation Xrotation
				JOINT joint_17
				{
					OFFSET 175.972961 13.159744 -75.358000
					CHANNELS 3 Zrotation Yrotation Xrotation
					End Site
					{
						OFFSET 0.000000 0.000000 0.000000
					}
				}
			}
		}
	}
	JOINT joint_18
	{
		OFFSET -9.062592 83.477568 -102.093018
		CHANNELS 3 Zrotation Yrotation Xrotation
		JOINT joint_19
		{
			OFFSET -39.145699 -6.092751 -449.645996
			CHANNELS 3 Zrotation Yrotation Xrotation
			JOINT joint_20
			{
				OFFSET -32.926178 -7.016375 -426.911980
				CHANNELS 3 Zrotation Yrotation Xrotation
				JOINT joint_21
				{
					OFFSET 176.289299 16.780729 -73.883997
					CHANNELS 3 Zrotation Yrotation Xrotation
					End Site
					{
						OFFSET 0.000000 0.000000 0.000000
					}
				}
			}
		}
	}
}
MOTION
Frames: 12
Frame Time: 0.016667
239.419342 -77.629204 1073.751953 -2.429644 -0.184805 0.345771 -0.345274 3.089137 2.326369 -0.473436 -0.645141 -0.590911 -0.413160 0.738494 0.382439 -0.333433 -0.068327 1.711565 0.000000 0.000000 0.000000 -0.707786 -1.728810 -0.731877 0.059815 -1.856513 -1.343769 -0.003304 1.573180 -0.072443 0.000000 0.000000 0.000000 -0.402120 -1.733587 -1.287161 -0.298039 -1.546544 0.616825 -0.147245 7.809868 -3.536599 0.000000 0.000000 0.000000 0.086647 -1.574558 0.671865 0.082767 1.670573 0.016676 0.105222 0.157197 0.033263 0.000000 0.000000 0.000000 1.024155 -2.351782 0.777732 1.022466 2.684514 -0.054896 1.022016 0.679987 0.362948 0.000000 0.000000 0.000000 
243.461975 -77.933769 1073.725952 -2.107685 0.697699 0.272081 -0.247514 2.861666 2.285780 -0.375705 -0.577664 -0.556836 -0.318163 0.680311 0.360979 -0.226398 -1.096279 1.853555 0.000000 0.000000 0.000000 -0.432058 -1.041626 -1.540886 -0.045813 -1.041351 -1.048484 0.068080 0.364631 1.531221 0.000000 0.000000 0.000000 0.132357 -1.413303 -0.837051 -0.399080 -1.397284 0.130291 -0.268797 6.963267 -3.722356 0.000000 0.000000 0.000000 -0.021182 -2.011121 0.717482 -0.027360 1.094265 0.111924 -0.002902 0.456695 -0.035409 0.000000 0.000000 0.000000 0.922689 -2.848772 0.910027 0.940304 2.123043 -0.135272 0.924707 1.076847 0.284540 0.000000 0.000000 0.000000 
249.494949 -78.093483 1073.866943 -1.654787 1.918084 0.146206 -0.114826 2.421268 2.305694 -0.248044 -0.424416 -0.504131 -0.193666 0.523786 0.321839 -0.065153 -2.557105 2.028059 0.000000 0.000000 0.000000 0.573074 0.174113 -2.380351 -0.234732 0.371052 -1.044176 0.172195 -1.570022 3.813832 0.000000 0.000000 0.000000 0.727863 -0.851677 -0.224412 -0.507777 -1.044630 -0.515136 -0.415670 5.821349 -3.978849 0.000000 0.000000 0.000000 -0.189027 -2.520085 0.777633 -0.198769 0.167502 0.297014 -0.168872 0.880442 -0.138139 0.000000 0.000000 0.000000 0.783439 -3.464852 1.121426 0.834728 1.259854 -0.265784 0.794205 1.660661 0.174388 0.000000 0.000000 0.000000 
255.847931 -78.954857 1074.545044 -1.166023 3.174739 0.020428 0.049188 2.514587 2.219002 -0.079540 -0.450531 -0.457742 -0.033479 0.574345 0.266685 0.139071 -4.183489 2.106909 0.000000 0.000000 0.000000 1.480172 1.226006 -2.968555 -0.467242 1.614786 -0.855598 0.244006 -4.856143 5.851621 0.000000 0.000000 0.000000 0.974089 -0.221950 0.749710 -0.735772 -0.637175 -1.339321 -0.782969 3.038070 -4.989799 0.000000 0.000000 0.000000 -0.401239 -3.463821 0.928201 -0.425906 0.059292 0.426881 -0.377836 1.007452 -0.237050 0.000000 0.000000 0.000000 0.624371 -4.322348 1.482560 0.726471 0.823145 -0.573000 0.655171 2.114694 0.072888 0.000000 0.000000 0.000000 
261.281036 -81.473862 1076.125000 -0.624541 4.302776 0.019520 0.239868 3.962551 1.648101 0.157874 -0.927430 -0.329175 0.174769 1.130439 0.179415 0.414025 -6.078613 2.045305 0.000000 0.000000 0.000000 1.709698 1.586944 -3.208602 -0.744636 2.134277 0.026281 0.227134 -10.025265 7.111655 0.000000 0.000000 0.000000 0.455686 0.344881 2.110120 -1.184835 -0.241599 -2.215894 -1.569755 -2.740485 -7.492682 0.000000 0.000000 0.000000 -0.697518 -5.068969 1.206561 -0.749821 1.416650 0.314077 -0.674844 0.667574 -0.338579 0.000000 0.000000 0.000000 0.434720 -5.559253 1.993408 0.603844 1.302957 -1.201679 0.494876 2.236784 -0.006083 0.000000 0.000000 0.000000 
266.415955 -85.334930 1078.464966 0.029908 5.341163 0.167097 0.421113 6.602289 0.610842 0.442231 -1.594427 -0.032047 0.404405 1.787818 0.013488 0.767718 -8.264003 1.933345 0.000000 0.000000 0.000000 1.514944 1.526782 -3.286282 -1.122959 2.244735 1.547810 0.091663 -16.717378 7.891879 0.000000 0.000000 0.000000 -0.543813 0.899945 3.527362 -1.678182 0.268286 -2.907258 -2.560645 -10.996769 -10.953029 0.000000 0.000000 0.000000 -1.089977 -7.094735 1.534535 -1.181490 3.737564 0.013904 -1.082200 0.117880 -0.470948 0.000000 0.000000 0.000000 0.199998 -7.046047 2.576801 0.444695 2.405971 -2.086486 0.289946 2.202369 -0.088998 0.000000 0.000000 0.000000 
271.966461 -88.740288 1081.048950 0.429415 6.156739 0.086767 0.598519 8.835826 0.205585 0.660133 -1.699807 0.012620 0.605203 1.850691 -0.105795 1.013690 -9.572516 1.933075 0.000000 0.000000 0.000000 1.277649 1.295110 -3.928625 -1.531544 2.244138 3.101727 -0.089020 -24.088440 8.247440 0.000000 0.000000 0.000000 -1.198393 1.562282 4.987275 -1.982838 0.943122 -3.774202 -3.330029 -20.147043 -13.684674 0.000000 0.000000 0.000000 -1.345568 -9.649396 1.843439 -1.522223 7.633689 -0.029948 -1.366737 -0.995332 -0.506621 0.000000 0.000000 0.000000 0.009612 -8.552295 3.335014 0.337304 4.108982 -2.881966 0.156145 1.931385 -0.119456 0.000000 0.000000 0.000000 
277.990662 -90.302917 1083.741943 0.221742 6.585019 -0.384226 0.871695 9.826339 0.783761 0.766442 -1.512449 -0.239452 0.735664 1.744958 -0.098645 1.020896 -9.508543 2.150525 0.000000 0.000000 0.000000 1.327668 0.920959 -5.103812 -1.998685 2.111619 3.590843 -0.272990 -32.505871 8.128642 0.000000 0.000000 0.000000 -1.182601 2.361381 6.575367 -2.115572 1.739103 -5.119510 -3.784787 -30.147864 -14.666006 0.000000 0.000000 0.000000 -1.248431 -13.026666 1.958398 -1.538305 14.116814 0.481041 -1.274668 -2.607009 -0.340940 0.000000 0.000000 0.000000 -0.072209 -9.917220 4.195640 0.374394 6.529440 -3.310933 0.216946 1.421602 -0.045748 0.000000 0.000000 0.000000 
284.224426 -90.699089 1086.741943 -0.284764 6.532141 -0.818142 1.212608 10.498652 1.395218 0.731805 -1.517703 -0.382680 0.703385 1.785256 0.018326 0.851045 -8.555116 2.523611 0.000000 0.000000 0.000000 1.578662 0.164752 -5.848686 -2.630521 1.479424 2.660137 -0.547437 -41.847954 7.247805 0.000000 0.000000 0.000000 -0.853934 3.114977 8.005569 -2.132188 2.566405 -6.641192 -4.003864 -41.379428 -14.274017 0.000000 0.000000 0.000000 -0.969175 -16.924693 1.579691 -1.260981 22.640838 1.470908 -0.826723 -3.623105 -0.068970 0.000000 0.000000 0.000000 -0.158569 -11.065346 4.793325 0.490721 9.615988 -3.450429 0.416274 0.953995 0.080464 0.000000 0.000000 0.000000 
292.429565 -90.870537 1089.126953 -0.786005 6.345125 -1.088089 1.613234 10.821211 1.925689 0.615324 -1.667979 -0.448328 0.559956 1.839007 0.183027 0.660378 -7.570190 2.832787 0.000000 0.000000 0.000000 1.959952 -0.815765 -6.154036 -3.246013 0.521242 1.182275 -0.875303 -49.596235 5.242389 0.000000 0.000000 0.000000 -0.371220 3.739012 8.928234 -2.144262 3.351239 -7.607115 -4.100913 -51.443037 -13.402490 0.000000 0.000000 0.000000 -0.770832 -20.562060 0.655454 -0.887754 30.806519 3.031060 -0.190265 -3.914630 0.217298 0.000000 0.000000 0.000000 -0.301919 -11.983558 5.137771 0.643538 12.756752 -3.480177 0.694467 0.634012 0.222613 0.000000 0.000000 0.000000 
304.308624 -91.457588 1090.067017 -1.457309 6.585501 -1.367698 2.074531 10.011452 2.665442 0.630065 -1.626067 -0.613698 0.560641 1.771637 0.328982 0.570369 -7.114214 2.964983 0.000000 0.000000 0.000000 2.401513 -1.606660 -6.394067 -3.655091 -0.264776 0.148553 -1.185368 -55.206593 1.559090 0.000000 0.000000 0.000000 0.203944 4.475214 9.301257 -2.206141 4.281429 -7.440921 -4.156444 -59.503441 -12.999081 0.000000 0.000000 0.000000 -0.584435 -24.089421 -0.657176 -0.412717 37.919816 5.351926 0.616817 -4.437767 0.578524 0.000000 0.000000 0.000000 -0.426999 -13.049923 5.484741 0.925404 15.749316 -3.522124 1.129285 0.310857 0.424888 0.000000 0.000000 0.000000 
319.192505 -92.120071 1089.916016 -2.327402 7.070358 -1.634551 2.432349 8.205743 3.536166 0.774884 -1.418706 -0.800467 0.702049 1.573080 0.473112 0.520702 -6.835206 2.980766 0.000000 0.000000 0.000000 2.939478 -2.348152 -6.342595 -3.885703 -1.064631 -0.961170 -1.419316 -59.557457 -3.790609 0.000000 0.000000 0.000000 0.889108 5.432605 9.306439 -2.225063 5.350936 -6.445030 -4.055622 -66.621742 -12.635140 0.000000 0.000000 0.000000 -0.297518 -27.726309 -2.422444 0.315747 44.855155 8.360850 1.752475 -4.991780 1.068790 0.000000 0.000000 0.000000 -0.555282 -14.219938 5.762277 1.342218 18.807316 -3.514568 1.747471 0.068041 0.686196 0.000000 0.000000 0.000000 
